ISO-10303-21;
HEADER;
FILE_DESCRIPTION(('FreeCAD Model'),'2;1');
FILE_NAME('Open CASCADE Shape Model','2026-02-23T01:52:37',(''),(''),
  'Open CASCADE STEP processor 7.8','FreeCAD','Unknown');
FILE_SCHEMA(('AUTOMOTIVE_DESIGN { 1 0 10303 214 1 1 1 1 }'));
ENDSEC;
DATA;
#1 = APPLICATION_PROTOCOL_DEFINITION('international standard',
  'automotive_design',2000,#2);
#2 = APPLICATION_CONTEXT(
  'core data for automotive mechanical design processes');
#3 = SHAPE_DEFINITION_REPRESENTATION(#4,#10);
#4 = PRODUCT_DEFINITION_SHAPE('','',#5);
#5 = PRODUCT_DEFINITION('design','',#6,#9);
#6 = PRODUCT_DEFINITION_FORMATION('','',#7);
#7 = PRODUCT('Part','Part','',(#8));
#8 = PRODUCT_CONTEXT('',#2,'mechanical');
#9 = PRODUCT_DEFINITION_CONTEXT('part definition',#2,'design');
#10 = SHAPE_REPRESENTATION('',(#11,#15,#19),#23);
#11 = AXIS2_PLACEMENT_3D('',#12,#13,#14);
#12 = CARTESIAN_POINT('',(0.,0.,0.));
#13 = DIRECTION('',(0.,0.,1.));
#14 = DIRECTION('',(1.,0.,-0.));
#15 = AXIS2_PLACEMENT_3D('',#16,#17,#18);
#16 = CARTESIAN_POINT('',(0.,0.,0.));
#17 = DIRECTION('',(0.,0.,1.));
#18 = DIRECTION('',(1.,0.,0.));
#19 = AXIS2_PLACEMENT_3D('',#20,#21,#22);
#20 = CARTESIAN_POINT('',(0.,0.,0.));
#21 = DIRECTION('',(0.,0.,1.));
#22 = DIRECTION('',(1.,0.,0.));
#23 = ( GEOMETRIC_REPRESENTATION_CONTEXT(3) 
GLOBAL_UNCERTAINTY_ASSIGNED_CONTEXT((#27)) GLOBAL_UNIT_ASSIGNED_CONTEXT(
(#24,#25,#26)) REPRESENTATION_CONTEXT('Context #1',
  '3D Context with UNIT and UNCERTAINTY') );
#24 = ( LENGTH_UNIT() NAMED_UNIT(*) SI_UNIT(.MILLI.,.METRE.) );
#25 = ( NAMED_UNIT(*) PLANE_ANGLE_UNIT() SI_UNIT($,.RADIAN.) );
#26 = ( NAMED_UNIT(*) SI_UNIT($,.STERADIAN.) SOLID_ANGLE_UNIT() );
#27 = UNCERTAINTY_MEASURE_WITH_UNIT(LENGTH_MEASURE(1.E-07),#24,
  'distance_accuracy_value','confusion accuracy');
#28 = PRODUCT_RELATED_PRODUCT_CATEGORY('part',$,(#7));
#29 = SHAPE_DEFINITION_REPRESENTATION(#30,#36);
#30 = PRODUCT_DEFINITION_SHAPE('','',#31);
#31 = PRODUCT_DEFINITION('design','',#32,#35);
#32 = PRODUCT_DEFINITION_FORMATION('','',#33);
#33 = PRODUCT('Body001','Body001','',(#34));
#34 = PRODUCT_CONTEXT('',#2,'mechanical');
#35 = PRODUCT_DEFINITION_CONTEXT('part definition',#2,'design');
#36 = ADVANCED_BREP_SHAPE_REPRESENTATION('',(#11,#37),#187);
#37 = MANIFOLD_SOLID_BREP('',#38);
#38 = CLOSED_SHELL('',(#39,#79,#110,#141,#163,#175));
#39 = ADVANCED_FACE('',(#40),#74,.F.);
#40 = FACE_BOUND('',#41,.F.);
#41 = EDGE_LOOP('',(#42,#52,#60,#68));
#42 = ORIENTED_EDGE('',*,*,#43,.T.);
#43 = EDGE_CURVE('',#44,#46,#48,.T.);
#44 = VERTEX_POINT('',#45);
#45 = CARTESIAN_POINT('',(2.412296293953E-12,38.,1.6));
#46 = VERTEX_POINT('',#47);
#47 = CARTESIAN_POINT('',(2.412296293953E-12,38.,2.6));
#48 = LINE('',#49,#50);
#49 = CARTESIAN_POINT('',(2.412296293953E-12,38.,1.6));
#50 = VECTOR('',#51,1.);
#51 = DIRECTION('',(0.,0.,1.));
#52 = ORIENTED_EDGE('',*,*,#53,.T.);
#53 = EDGE_CURVE('',#46,#54,#56,.T.);
#54 = VERTEX_POINT('',#55);
#55 = CARTESIAN_POINT('',(1.3168E-12,13.,2.6));
#56 = LINE('',#57,#58);
#57 = CARTESIAN_POINT('',(2.4123E-12,38.,2.6));
#58 = VECTOR('',#59,1.);
#59 = DIRECTION('',(-4.382E-14,-1.,0.));
#60 = ORIENTED_EDGE('',*,*,#61,.F.);
#61 = EDGE_CURVE('',#62,#54,#64,.T.);
#62 = VERTEX_POINT('',#63);
#63 = CARTESIAN_POINT('',(1.3168E-12,13.,1.6));
#64 = LINE('',#65,#66);
#65 = CARTESIAN_POINT('',(1.3168E-12,13.,1.6));
#66 = VECTOR('',#67,1.);
#67 = DIRECTION('',(0.,0.,1.));
#68 = ORIENTED_EDGE('',*,*,#69,.F.);
#69 = EDGE_CURVE('',#44,#62,#70,.T.);
#70 = LINE('',#71,#72);
#71 = CARTESIAN_POINT('',(2.4123E-12,38.,1.6));
#72 = VECTOR('',#73,1.);
#73 = DIRECTION('',(-4.382E-14,-1.,0.));
#74 = PLANE('',#75);
#75 = AXIS2_PLACEMENT_3D('',#76,#77,#78);
#76 = CARTESIAN_POINT('',(2.4123E-12,38.,1.6));
#77 = DIRECTION('',(1.,-4.382E-14,0.));
#78 = DIRECTION('',(-4.382E-14,-1.,0.));
#79 = ADVANCED_FACE('',(#80),#105,.F.);
#80 = FACE_BOUND('',#81,.F.);
#81 = EDGE_LOOP('',(#82,#83,#91,#99));
#82 = ORIENTED_EDGE('',*,*,#61,.T.);
#83 = ORIENTED_EDGE('',*,*,#84,.T.);
#84 = EDGE_CURVE('',#54,#85,#87,.T.);
#85 = VERTEX_POINT('',#86);
#86 = CARTESIAN_POINT('',(28.000000000002,13.,2.6));
#87 = LINE('',#88,#89);
#88 = CARTESIAN_POINT('',(1.3168E-12,13.,2.6));
#89 = VECTOR('',#90,1.);
#90 = DIRECTION('',(1.,0.,0.));
#91 = ORIENTED_EDGE('',*,*,#92,.F.);
#92 = EDGE_CURVE('',#93,#85,#95,.T.);
#93 = VERTEX_POINT('',#94);
#94 = CARTESIAN_POINT('',(28.000000000002,13.,1.6));
#95 = LINE('',#96,#97);
#96 = CARTESIAN_POINT('',(28.000000000002,13.,1.6));
#97 = VECTOR('',#98,1.);
#98 = DIRECTION('',(0.,0.,1.));
#99 = ORIENTED_EDGE('',*,*,#100,.F.);
#100 = EDGE_CURVE('',#62,#93,#101,.T.);
#101 = LINE('',#102,#103);
#102 = CARTESIAN_POINT('',(1.3168E-12,13.,1.6));
#103 = VECTOR('',#104,1.);
#104 = DIRECTION('',(1.,0.,0.));
#105 = PLANE('',#106);
#106 = AXIS2_PLACEMENT_3D('',#107,#108,#109);
#107 = CARTESIAN_POINT('',(1.3168E-12,13.,1.6));
#108 = DIRECTION('',(0.,1.,0.));
#109 = DIRECTION('',(1.,0.,0.));
#110 = ADVANCED_FACE('',(#111),#136,.F.);
#111 = FACE_BOUND('',#112,.F.);
#112 = EDGE_LOOP('',(#113,#114,#122,#130));
#113 = ORIENTED_EDGE('',*,*,#92,.T.);
#114 = ORIENTED_EDGE('',*,*,#115,.T.);
#115 = EDGE_CURVE('',#85,#116,#118,.T.);
#116 = VERTEX_POINT('',#117);
#117 = CARTESIAN_POINT('',(28.000000000002,38.,2.6));
#118 = LINE('',#119,#120);
#119 = CARTESIAN_POINT('',(28.000000000002,13.,2.6));
#120 = VECTOR('',#121,1.);
#121 = DIRECTION('',(0.,1.,0.));
#122 = ORIENTED_EDGE('',*,*,#123,.F.);
#123 = EDGE_CURVE('',#124,#116,#126,.T.);
#124 = VERTEX_POINT('',#125);
#125 = CARTESIAN_POINT('',(28.000000000002,38.,1.6));
#126 = LINE('',#127,#128);
#127 = CARTESIAN_POINT('',(28.000000000002,38.,1.6));
#128 = VECTOR('',#129,1.);
#129 = DIRECTION('',(0.,0.,1.));
#130 = ORIENTED_EDGE('',*,*,#131,.F.);
#131 = EDGE_CURVE('',#93,#124,#132,.T.);
#132 = LINE('',#133,#134);
#133 = CARTESIAN_POINT('',(28.000000000002,13.,1.6));
#134 = VECTOR('',#135,1.);
#135 = DIRECTION('',(0.,1.,0.));
#136 = PLANE('',#137);
#137 = AXIS2_PLACEMENT_3D('',#138,#139,#140);
#138 = CARTESIAN_POINT('',(28.000000000002,13.,1.6));
#139 = DIRECTION('',(-1.,0.,0.));
#140 = DIRECTION('',(0.,1.,0.));
#141 = ADVANCED_FACE('',(#142),#158,.F.);
#142 = FACE_BOUND('',#143,.F.);
#143 = EDGE_LOOP('',(#144,#145,#151,#152));
#144 = ORIENTED_EDGE('',*,*,#123,.T.);
#145 = ORIENTED_EDGE('',*,*,#146,.T.);
#146 = EDGE_CURVE('',#116,#46,#147,.T.);
#147 = LINE('',#148,#149);
#148 = CARTESIAN_POINT('',(28.000000000002,38.,2.6));
#149 = VECTOR('',#150,1.);
#150 = DIRECTION('',(-1.,0.,0.));
#151 = ORIENTED_EDGE('',*,*,#43,.F.);
#152 = ORIENTED_EDGE('',*,*,#153,.F.);
#153 = EDGE_CURVE('',#124,#44,#154,.T.);
#154 = LINE('',#155,#156);
#155 = CARTESIAN_POINT('',(28.000000000002,38.,1.6));
#156 = VECTOR('',#157,1.);
#157 = DIRECTION('',(-1.,0.,0.));
#158 = PLANE('',#159);
#159 = AXIS2_PLACEMENT_3D('',#160,#161,#162);
#160 = CARTESIAN_POINT('',(28.000000000002,38.,1.6));
#161 = DIRECTION('',(0.,-1.,0.));
#162 = DIRECTION('',(-1.,0.,0.));
#163 = ADVANCED_FACE('',(#164),#170,.F.);
#164 = FACE_BOUND('',#165,.F.);
#165 = EDGE_LOOP('',(#166,#167,#168,#169));
#166 = ORIENTED_EDGE('',*,*,#69,.T.);
#167 = ORIENTED_EDGE('',*,*,#100,.T.);
#168 = ORIENTED_EDGE('',*,*,#131,.T.);
#169 = ORIENTED_EDGE('',*,*,#153,.T.);
#170 = PLANE('',#171);
#171 = AXIS2_PLACEMENT_3D('',#172,#173,#174);
#172 = CARTESIAN_POINT('',(14.000000000002,25.5,1.6));
#173 = DIRECTION('',(0.,0.,1.));
#174 = DIRECTION('',(1.,0.,0.));
#175 = ADVANCED_FACE('',(#176),#182,.T.);
#176 = FACE_BOUND('',#177,.T.);
#177 = EDGE_LOOP('',(#178,#179,#180,#181));
#178 = ORIENTED_EDGE('',*,*,#53,.T.);
#179 = ORIENTED_EDGE('',*,*,#84,.T.);
#180 = ORIENTED_EDGE('',*,*,#115,.T.);
#181 = ORIENTED_EDGE('',*,*,#146,.T.);
#182 = PLANE('',#183);
#183 = AXIS2_PLACEMENT_3D('',#184,#185,#186);
#184 = CARTESIAN_POINT('',(14.000000000002,25.5,2.6));
#185 = DIRECTION('',(0.,0.,1.));
#186 = DIRECTION('',(1.,0.,0.));
#187 = ( GEOMETRIC_REPRESENTATION_CONTEXT(3) 
GLOBAL_UNCERTAINTY_ASSIGNED_CONTEXT((#191)) GLOBAL_UNIT_ASSIGNED_CONTEXT
((#188,#189,#190)) REPRESENTATION_CONTEXT('Context #1',
  '3D Context with UNIT and UNCERTAINTY') );
#188 = ( LENGTH_UNIT() NAMED_UNIT(*) SI_UNIT(.MILLI.,.METRE.) );
#189 = ( NAMED_UNIT(*) PLANE_ANGLE_UNIT() SI_UNIT($,.RADIAN.) );
#190 = ( NAMED_UNIT(*) SI_UNIT($,.STERADIAN.) SOLID_ANGLE_UNIT() );
#191 = UNCERTAINTY_MEASURE_WITH_UNIT(LENGTH_MEASURE(1.E-07),#188,
  'distance_accuracy_value','confusion accuracy');
#192 = CONTEXT_DEPENDENT_SHAPE_REPRESENTATION(#193,#195);
#193 = ( REPRESENTATION_RELATIONSHIP('','',#36,#10) 
REPRESENTATION_RELATIONSHIP_WITH_TRANSFORMATION(#194) 
SHAPE_REPRESENTATION_RELATIONSHIP() );
#194 = ITEM_DEFINED_TRANSFORMATION('','',#11,#15);
#195 = PRODUCT_DEFINITION_SHAPE('Placement','Placement of an item',#196
  );
#196 = NEXT_ASSEMBLY_USAGE_OCCURRENCE('1','Body001','',#5,#31,$);
#197 = PRODUCT_RELATED_PRODUCT_CATEGORY('part',$,(#33));
#198 = SHAPE_DEFINITION_REPRESENTATION(#199,#205);
#199 = PRODUCT_DEFINITION_SHAPE('','',#200);
#200 = PRODUCT_DEFINITION('design','',#201,#204);
#201 = PRODUCT_DEFINITION_FORMATION('','',#202);
#202 = PRODUCT('Body006','Body006','',(#203));
#203 = PRODUCT_CONTEXT('',#2,'mechanical');
#204 = PRODUCT_DEFINITION_CONTEXT('part definition',#2,'design');
#205 = ADVANCED_BREP_SHAPE_REPRESENTATION('',(#11,#206),#389);
#206 = MANIFOLD_SOLID_BREP('',#207);
#207 = CLOSED_SHELL('',(#208,#248,#279,#310,#341,#363,#376));
#208 = ADVANCED_FACE('',(#209),#243,.T.);
#209 = FACE_BOUND('',#210,.T.);
#210 = EDGE_LOOP('',(#211,#221,#229,#237));
#211 = ORIENTED_EDGE('',*,*,#212,.T.);
#212 = EDGE_CURVE('',#213,#215,#217,.T.);
#213 = VERTEX_POINT('',#214);
#214 = CARTESIAN_POINT('',(0.5,36.5,2.6));
#215 = VERTEX_POINT('',#216);
#216 = CARTESIAN_POINT('',(0.5,36.5,4.4));
#217 = LINE('',#218,#219);
#218 = CARTESIAN_POINT('',(0.5,36.5,2.6));
#219 = VECTOR('',#220,1.);
#220 = DIRECTION('',(0.,0.,1.));
#221 = ORIENTED_EDGE('',*,*,#222,.T.);
#222 = EDGE_CURVE('',#215,#223,#225,.T.);
#223 = VERTEX_POINT('',#224);
#224 = CARTESIAN_POINT('',(27.5,36.5,4.4));
#225 = LINE('',#226,#227);
#226 = CARTESIAN_POINT('',(0.5,36.5,4.4));
#227 = VECTOR('',#228,1.);
#228 = DIRECTION('',(1.,0.,0.));
#229 = ORIENTED_EDGE('',*,*,#230,.F.);
#230 = EDGE_CURVE('',#231,#223,#233,.T.);
#231 = VERTEX_POINT('',#232);
#232 = CARTESIAN_POINT('',(27.5,36.5,2.6));
#233 = LINE('',#234,#235);
#234 = CARTESIAN_POINT('',(27.5,36.5,2.6));
#235 = VECTOR('',#236,1.);
#236 = DIRECTION('',(0.,0.,1.));
#237 = ORIENTED_EDGE('',*,*,#238,.F.);
#238 = EDGE_CURVE('',#213,#231,#239,.T.);
#239 = LINE('',#240,#241);
#240 = CARTESIAN_POINT('',(0.5,36.5,2.6));
#241 = VECTOR('',#242,1.);
#242 = DIRECTION('',(1.,0.,0.));
#243 = PLANE('',#244);
#244 = AXIS2_PLACEMENT_3D('',#245,#246,#247);
#245 = CARTESIAN_POINT('',(0.5,36.5,2.6));
#246 = DIRECTION('',(0.,1.,0.));
#247 = DIRECTION('',(1.,0.,0.));
#248 = ADVANCED_FACE('',(#249),#274,.T.);
#249 = FACE_BOUND('',#250,.T.);
#250 = EDGE_LOOP('',(#251,#252,#260,#268));
#251 = ORIENTED_EDGE('',*,*,#230,.T.);
#252 = ORIENTED_EDGE('',*,*,#253,.T.);
#253 = EDGE_CURVE('',#223,#254,#256,.T.);
#254 = VERTEX_POINT('',#255);
#255 = CARTESIAN_POINT('',(27.5,14.5,4.4));
#256 = LINE('',#257,#258);
#257 = CARTESIAN_POINT('',(27.5,36.5,4.4));
#258 = VECTOR('',#259,1.);
#259 = DIRECTION('',(0.,-1.,0.));
#260 = ORIENTED_EDGE('',*,*,#261,.F.);
#261 = EDGE_CURVE('',#262,#254,#264,.T.);
#262 = VERTEX_POINT('',#263);
#263 = CARTESIAN_POINT('',(27.5,14.5,2.6));
#264 = LINE('',#265,#266);
#265 = CARTESIAN_POINT('',(27.5,14.5,2.6));
#266 = VECTOR('',#267,1.);
#267 = DIRECTION('',(0.,0.,1.));
#268 = ORIENTED_EDGE('',*,*,#269,.F.);
#269 = EDGE_CURVE('',#231,#262,#270,.T.);
#270 = LINE('',#271,#272);
#271 = CARTESIAN_POINT('',(27.5,36.5,2.6));
#272 = VECTOR('',#273,1.);
#273 = DIRECTION('',(0.,-1.,0.));
#274 = PLANE('',#275);
#275 = AXIS2_PLACEMENT_3D('',#276,#277,#278);
#276 = CARTESIAN_POINT('',(27.5,36.5,2.6));
#277 = DIRECTION('',(1.,0.,0.));
#278 = DIRECTION('',(0.,-1.,0.));
#279 = ADVANCED_FACE('',(#280),#305,.T.);
#280 = FACE_BOUND('',#281,.T.);
#281 = EDGE_LOOP('',(#282,#283,#291,#299));
#282 = ORIENTED_EDGE('',*,*,#261,.T.);
#283 = ORIENTED_EDGE('',*,*,#284,.T.);
#284 = EDGE_CURVE('',#254,#285,#287,.T.);
#285 = VERTEX_POINT('',#286);
#286 = CARTESIAN_POINT('',(5.5,14.5,4.4));
#287 = LINE('',#288,#289);
#288 = CARTESIAN_POINT('',(27.5,14.5,4.4));
#289 = VECTOR('',#290,1.);
#290 = DIRECTION('',(-1.,0.,0.));
#291 = ORIENTED_EDGE('',*,*,#292,.F.);
#292 = EDGE_CURVE('',#293,#285,#295,.T.);
#293 = VERTEX_POINT('',#294);
#294 = CARTESIAN_POINT('',(5.5,14.5,2.6));
#295 = LINE('',#296,#297);
#296 = CARTESIAN_POINT('',(5.5,14.5,2.6));
#297 = VECTOR('',#298,1.);
#298 = DIRECTION('',(0.,0.,1.));
#299 = ORIENTED_EDGE('',*,*,#300,.F.);
#300 = EDGE_CURVE('',#262,#293,#301,.T.);
#301 = LINE('',#302,#303);
#302 = CARTESIAN_POINT('',(27.5,14.5,2.6));
#303 = VECTOR('',#304,1.);
#304 = DIRECTION('',(-1.,0.,0.));
#305 = PLANE('',#306);
#306 = AXIS2_PLACEMENT_3D('',#307,#308,#309);
#307 = CARTESIAN_POINT('',(27.5,14.5,2.6));
#308 = DIRECTION('',(0.,-1.,0.));
#309 = DIRECTION('',(-1.,0.,0.));
#310 = ADVANCED_FACE('',(#311),#336,.T.);
#311 = FACE_BOUND('',#312,.T.);
#312 = EDGE_LOOP('',(#313,#314,#322,#330));
#313 = ORIENTED_EDGE('',*,*,#292,.T.);
#314 = ORIENTED_EDGE('',*,*,#315,.T.);
#315 = EDGE_CURVE('',#285,#316,#318,.T.);
#316 = VERTEX_POINT('',#317);
#317 = CARTESIAN_POINT('',(0.5,19.,4.4));
#318 = LINE('',#319,#320);
#319 = CARTESIAN_POINT('',(5.5,14.5,4.4));
#320 = VECTOR('',#321,1.);
#321 = DIRECTION('',(-0.743294146247,0.668964731622,0.));
#322 = ORIENTED_EDGE('',*,*,#323,.F.);
#323 = EDGE_CURVE('',#324,#316,#326,.T.);
#324 = VERTEX_POINT('',#325);
#325 = CARTESIAN_POINT('',(0.5,19.,2.6));
#326 = LINE('',#327,#328);
#327 = CARTESIAN_POINT('',(0.5,19.,2.6));
#328 = VECTOR('',#329,1.);
#329 = DIRECTION('',(0.,0.,1.));
#330 = ORIENTED_EDGE('',*,*,#331,.F.);
#331 = EDGE_CURVE('',#293,#324,#332,.T.);
#332 = LINE('',#333,#334);
#333 = CARTESIAN_POINT('',(5.5,14.5,2.6));
#334 = VECTOR('',#335,1.);
#335 = DIRECTION('',(-0.743294146247,0.668964731622,0.));
#336 = PLANE('',#337);
#337 = AXIS2_PLACEMENT_3D('',#338,#339,#340);
#338 = CARTESIAN_POINT('',(5.5,14.5,2.6));
#339 = DIRECTION('',(-0.668964731622,-0.743294146247,0.));
#340 = DIRECTION('',(-0.743294146247,0.668964731622,0.));
#341 = ADVANCED_FACE('',(#342),#358,.T.);
#342 = FACE_BOUND('',#343,.T.);
#343 = EDGE_LOOP('',(#344,#345,#351,#352));
#344 = ORIENTED_EDGE('',*,*,#323,.T.);
#345 = ORIENTED_EDGE('',*,*,#346,.T.);
#346 = EDGE_CURVE('',#316,#215,#347,.T.);
#347 = LINE('',#348,#349);
#348 = CARTESIAN_POINT('',(0.5,19.,4.4));
#349 = VECTOR('',#350,1.);
#350 = DIRECTION('',(0.,1.,0.));
#351 = ORIENTED_EDGE('',*,*,#212,.F.);
#352 = ORIENTED_EDGE('',*,*,#353,.F.);
#353 = EDGE_CURVE('',#324,#213,#354,.T.);
#354 = LINE('',#355,#356);
#355 = CARTESIAN_POINT('',(0.5,19.,2.6));
#356 = VECTOR('',#357,1.);
#357 = DIRECTION('',(0.,1.,0.));
#358 = PLANE('',#359);
#359 = AXIS2_PLACEMENT_3D('',#360,#361,#362);
#360 = CARTESIAN_POINT('',(0.5,19.,2.6));
#361 = DIRECTION('',(-1.,0.,0.));
#362 = DIRECTION('',(0.,1.,0.));
#363 = ADVANCED_FACE('',(#364),#371,.F.);
#364 = FACE_BOUND('',#365,.T.);
#365 = EDGE_LOOP('',(#366,#367,#368,#369,#370));
#366 = ORIENTED_EDGE('',*,*,#238,.T.);
#367 = ORIENTED_EDGE('',*,*,#269,.T.);
#368 = ORIENTED_EDGE('',*,*,#300,.T.);
#369 = ORIENTED_EDGE('',*,*,#331,.T.);
#370 = ORIENTED_EDGE('',*,*,#353,.T.);
#371 = PLANE('',#372);
#372 = AXIS2_PLACEMENT_3D('',#373,#374,#375);
#373 = CARTESIAN_POINT('',(14.438480159672,25.872955830814,2.6));
#374 = DIRECTION('',(0.,0.,1.));
#375 = DIRECTION('',(1.,0.,0.));
#376 = ADVANCED_FACE('',(#377),#384,.T.);
#377 = FACE_BOUND('',#378,.F.);
#378 = EDGE_LOOP('',(#379,#380,#381,#382,#383));
#379 = ORIENTED_EDGE('',*,*,#222,.T.);
#380 = ORIENTED_EDGE('',*,*,#253,.T.);
#381 = ORIENTED_EDGE('',*,*,#284,.T.);
#382 = ORIENTED_EDGE('',*,*,#315,.T.);
#383 = ORIENTED_EDGE('',*,*,#346,.T.);
#384 = PLANE('',#385);
#385 = AXIS2_PLACEMENT_3D('',#386,#387,#388);
#386 = CARTESIAN_POINT('',(14.438480159672,25.872955830814,4.4));
#387 = DIRECTION('',(0.,0.,1.));
#388 = DIRECTION('',(1.,0.,0.));
#389 = ( GEOMETRIC_REPRESENTATION_CONTEXT(3) 
GLOBAL_UNCERTAINTY_ASSIGNED_CONTEXT((#393)) GLOBAL_UNIT_ASSIGNED_CONTEXT
((#390,#391,#392)) REPRESENTATION_CONTEXT('Context #1',
  '3D Context with UNIT and UNCERTAINTY') );
#390 = ( LENGTH_UNIT() NAMED_UNIT(*) SI_UNIT(.MILLI.,.METRE.) );
#391 = ( NAMED_UNIT(*) PLANE_ANGLE_UNIT() SI_UNIT($,.RADIAN.) );
#392 = ( NAMED_UNIT(*) SI_UNIT($,.STERADIAN.) SOLID_ANGLE_UNIT() );
#393 = UNCERTAINTY_MEASURE_WITH_UNIT(LENGTH_MEASURE(1.E-07),#390,
  'distance_accuracy_value','confusion accuracy');
#394 = CONTEXT_DEPENDENT_SHAPE_REPRESENTATION(#395,#397);
#395 = ( REPRESENTATION_RELATIONSHIP('','',#205,#10) 
REPRESENTATION_RELATIONSHIP_WITH_TRANSFORMATION(#396) 
SHAPE_REPRESENTATION_RELATIONSHIP() );
#396 = ITEM_DEFINED_TRANSFORMATION('','',#11,#19);
#397 = PRODUCT_DEFINITION_SHAPE('Placement','Placement of an item',#398
  );
#398 = NEXT_ASSEMBLY_USAGE_OCCURRENCE('2','Body006','',#5,#200,$);
#399 = PRODUCT_RELATED_PRODUCT_CATEGORY('part',$,(#202));
#400 = MECHANICAL_DESIGN_GEOMETRIC_PRESENTATION_REPRESENTATION('',(#401)
  ,#389);
#401 = STYLED_ITEM('color',(#402),#206);
#402 = PRESENTATION_STYLE_ASSIGNMENT((#403,#409));
#403 = SURFACE_STYLE_USAGE(.BOTH.,#404);
#404 = SURFACE_SIDE_STYLE('',(#405));
#405 = SURFACE_STYLE_FILL_AREA(#406);
#406 = FILL_AREA_STYLE('',(#407));
#407 = FILL_AREA_STYLE_COLOUR('',#408);
#408 = COLOUR_RGB('',0.300000011149,0.300000011149,0.300000011149);
#409 = CURVE_STYLE('',#410,POSITIVE_LENGTH_MEASURE(0.1),#411);
#410 = DRAUGHTING_PRE_DEFINED_CURVE_FONT('continuous');
#411 = COLOUR_RGB('',9.803921802644E-02,9.803921802644E-02,
  9.803921802644E-02);
#412 = MECHANICAL_DESIGN_GEOMETRIC_PRESENTATION_REPRESENTATION('',(#413)
  ,#187);
#413 = STYLED_ITEM('color',(#414),#37);
#414 = PRESENTATION_STYLE_ASSIGNMENT((#415,#421));
#415 = SURFACE_STYLE_USAGE(.BOTH.,#416);
#416 = SURFACE_SIDE_STYLE('',(#417));
#417 = SURFACE_STYLE_FILL_AREA(#418);
#418 = FILL_AREA_STYLE('',(#419));
#419 = FILL_AREA_STYLE_COLOUR('',#420);
#420 = DRAUGHTING_PRE_DEFINED_COLOUR('black');
#421 = CURVE_STYLE('',#422,POSITIVE_LENGTH_MEASURE(0.1),#411);
#422 = DRAUGHTING_PRE_DEFINED_CURVE_FONT('continuous');
ENDSEC;
END-ISO-10303-21;
